/* XPM */
static char *efe9b934be094af6a620179b9ce4a3fc2mjaKtgoTCLzGvqc[] = {
/* columns rows colors chars-per-pixel */
"100 100 16 1 ",
"  c #040507",
". c #050608",
"X c #060709",
"o c #070709",
"O c #07080A",
"+ c #08080A",
"@ c #08090B",
"# c #09090B",
"$ c #090A0C",
"% c #0A0A0C",
"& c #0A0B0D",
"* c #0B0B0D",
"= c #0B0C0E",
"- c #0C0C0E",
"; c #0C0D0F",
": c #0D0E10",
/* pixels */
"&&@&&===&&O&;&@&X&;=&&@XX&&&@@@@@&&&&&&OXO@@@@&&@&&&&&&=&&&&&&@O@&&&&@@&&&&@@@@@O@@@@@@O@@@@@@@@XO@@",
"&@OOO@@@&&O&=&@&&&=&OO@&@&=&&&&&@&&@@&&@@&&&@@&&@@&&@@&&&&==&&&&@@&&&&&&&&&&@@@&@@@@@@@@@@@@@@@@O@@@",
"&&@OO@@O@&@@&&@&=&&&OX@&@&=&&&&&@&@OO&&@&&@&&&@@O@@@@@@&&&==&&&&@@&&&&&&&&@@@@&&&&@@@@&&@@@@@@@@OOOO",
"=&&@@@@@O&@@&&@&&@&=&OO&O&&@@&&@@&@OO&&&&@O@&&@O@@@@@@@@@&&&&&&&@@&&&&@@@@@@@@@@&&@@@@&&@@@@@@@@@@@O",
"&@OOO@@OO&&@&&@&@O&;=@O&O@@@@&@O@&&@@&&&&@O@&&&&&&&&&&&&&@O@&&&O&&&&&@@O@@@@&&&&&@@OO@@&@@@@@@@@&&&&",
"&@OOO@@@@&&O&&@&&@@&&&&&@&@@@&&O@&&&&&&@&@@&&&&&&&&&&&&@&@O@&=&O&&&&&@OO@&&&&&&&@@@@@@@@@@@@@@@@@@@@",
"=&&@&&&&&=&O&&@@&&&@@&&&&&@@@&&@O&&&&&&O@@&&&&&&&&@@&&@O&@O@&&&@@@@@&&@O@&&&&&&&@@@@@@@@@@@@@@@@OOOX",
"=&&@&&&@=;&O&=@O@&&@@&&O@@@O@&&OO@&&&&@XO@&@OXO@&@OO@@OXOOOO@@@@OOO@&&&@O@@@@@@O@@&&&&@@@@@@@@@@&&&@",
"&&@&&&@OOOOO@&&&&@&==&&&&&@@@@&&OXO&&&&&@OO&&@@&&&&O@&&OO@OO&&@&@@@&&&&@=&&@OOOO&&@@@@&&&=X &@X@&&&&",
"@OO@&&@@OOO@@@@&@@@&&&&&OOOO@@@O&@&&&&&&@O@&&@@&@&@O@&=&@&@@&&@&&&@&&&@@&&&@OOOO@@@O@@&&O&@@=&XOO@@@",
"XXOO@&@@O@&@OO@@@OO&&@&&XOOO@@OO&@@&&OO@@O@&&&&&@@@@&&&&&=&@&&O&&&&&&&@@&&@@OOOO@OOOO@&&X@@@&@XXOO@@",
"OOOO@@@@O&&&OXO@@OOO@O@&@@@@@@&&&@O@@OOOOO@&&&&&&&&@@@@@&&&@&@O@&&&&&&@@&&@@OOOO@OOOO@@@X@@OOXXO&&&&",
"@@@@OO@@O&&&OXO@&OOOOXO@&&@OO@&=&@@&&@@&O@@@&&&&@@@@OOO@@&@O&@O&&&&&&&@@@@@@@OOO@@@OOOOO&&&&OXO@&&&&",
"@@@@OOO@O@&@OO@@@OOOOOO&&&@OO@&&@OO@@@@&O@@@@&&@OXOOOO@&O&@O&&@&&&@@@&@@OO@@@@OO@@@OOOOO@O&=@O@XOO@@",
"O@@@OO@&OOO@@@@&OXO@@@@&&&@@@@@@OXXOOOO&O@&OO@@OOXO@@O@&@&@O&&@&&@OO@@@@OO@@@@OOOOO@@@@@@X@&O@&XOOOO",
"XOOOOO@&OOOO@&&&XXX@&&&=@&&&&@OO&@O@@@@&O&&OO@OX@@@&@XO&@&&@&&@&&@OO@@@@XO@@@@OOXXO@@&&&=XO@X&:&OOOX",
"OOOOOO@@@OXO&&@XOO@@@@@@XO@&@@@@OOXO&&@OOO@&@XO&@&&&@OOOO@&&OO@&X&&@O@&=;@OOX@&OXXX@&&OXXXO@&&&@XXXX",
"@@@@OOOO@@OO@@OX@@OOOOOOOO@@OOOO&@O@&&&O@O@&@OO&@@@@@@OOO&&&OO@&O&&@@&&@=@@@O@&O&@@@@@OO@@OOOXXX@@OO",
"@@@@@OOOOOO@@@OO@OOO@@OX@@@@OXOO&@O@&&@O&@O@@@OO@@O@&&@O@&&&@OO@&@OO&&@X&@&&O@&OOOOXXO@&@OOOOOO@OOOX",
"OOOO@@@&XO@@OO@&OXXO@&&@&&@@OO@&&&@@&&@O&&@@@@OX&OO@&&&O@&&&@OO@&@O@&&@X@O&&OO&OXO@OXXO@OOOOO@@@OOXX",
"XXOOO@@@XO@@OXO&OOXO&&&&O@@OOO@&=&@&&&&@&&@@@&OX&OO@&&&O@&&&@OOOOO@&&&&@@O&&OO@O&==&@XXX&&&&@XX @OOX",
"OOOOOOOO@&&@XXXO@@@@@@@@XOOOOO@&&@OO@&@O&&&@@@@X@@O@&&&@@@&&&@OOXO@&&@&&@O@&O@&OO@&&@@@@@&&&&&@OOOXX",
"OOOOOOOO@@@OOOOO@&&&OOO@O@@@@O@@@OXXO@OO@&&@O@@O@@@&&&@@@@@&&@@OOO@&@OO&&OO@@&&OXXXXO@&&O@&&&===OXXX",
"XXOO@&&&OXXOO@&&X@&&OO@&&&&&&&@@&@O@&&&&@&&@O@@@@@&&&@@&O@@&&&@O&OXO@XX@=@O@@&&@&@XXXOOOOOOOOOO@@@OX",
"O@@&&&@O@@@@&@OX&&@@OO&&@&;;&@&&&&==&&&&@&&&@O@&OOO@@@&&@@&&&OO&&@@&@OXO:&OO&&@X&OXOOXX&@@@OOXXX@@OO",
"XOO@@@@@&&@@@&@@@&&@@O@@XO@@OXOO@@@@@@@@OO@@OOO@&@@O@@&&@@&&&OO&&OO@@O@&&OXX@@OX&@@&@@@&@@@@@@@@OOXX",
"XOOO@@@@&&@O@@@@O@&&@OOOXXOOOO@@OOO@@@OOOOOOOOOO=&@OO@&&O@&&@OO&@@@@OO@=@OO@&&&@XO@@@@@OOO@@@&&&OXXX",
"@@@@@@@&&@OOO@OOO@@@@@@@&@OO@&&&@@@&&&&&&@OO@&@O=&&@O@@&O@@&@OO@&&&@OX@&O@&&&&&&XO@OO&&OOOOO@@@@@@OO",
"&&@@@@@O@OO@@@OXOOOOO@&&&@OO@@@O@@@&&&&&&@O@&&@@&&&@@@@@O@@@@@@@&&&@OO@&XO@@@OOOO&&O@&=&OOOOOOOO@@@@",
"O@@@@OOX@@@&&&OXOOOOO@&=&&@O@@@OOOOO@OOO@@OO@@@O@&&&&@@@O@&@@@@OO@@O@&&&XOOOOXXX@@@OO&&&@@@@@OOOXO@&",
"XO@&&@OX@@@@@@@O@@@@@@&&&&&@&&&&OOOOOOOXO@@@OOO@&&@@@&&&O&&@@&&OOOOO&&&O@@OO@@@@OXXO@OO@@@@OOOOOXXO@",
"XX@&&&&@&@XXXOOO@&&&&@@@OO@@@@@@@@&&@@@OO@&@OO@&&&@@@&==@&&@@&&O@@OO&&@X@OXO@@&@OXO&&OX@XXXXXXXXXOOO",
"=OO@OXX OXXXX@@@&&&@@&&@&&@OOO@&OO@@@@@@O&&&@OOOO@&&&&&@OO@&@@XX&OX@@OXXXXOOXXXOOO@@@@OX@@@&@XO&XO@@",
"&XO&OOOXOXXXOO@@O@@OO&&@&&@OO@@&@@&&@OOOXO@@@@&&OO@@@@@@@@@&&@@O@OO@@OXO@@@@@@OOXXOOOXXX&O@&&OXXXOOO",
"&O@&@O&&OOOOOOOO@@@OOOOO@@@@@@@@@@&@@OOO&@OOOOOO@@@@@@@@OOOOOOOOOOO@@XO@&@OO@@OXOOOOOOOOOXX@&@X XOOO",
"@O&&OO&&X@&&@O@@&&@OXXXXOO@@@@@@XO@@@@@&=&OXXOXX&&@@@&&&OOXXXOO@O@@@OXO@@OXXOOXX@@@OOOO@XXXO@@OXOOOO",
"OO&&XO&@XO&&@@&&@OOOOOXXOO@@@@@@XO@@@@@&@XXXO@@@&@@@@@&&&&@@@&&&@&&@XXXOO@@@OOO@OOXXXXXXXXOOXO@&OOOO",
"OO@@XO@XOO@@@&&&XXX@@@@&OO@@@@@@@@&@@OOO@OXXXO@@OOOOOO@@&&@@@@&&@&&OXOOOXO@OXXO@OOOOOOOXO@@OXXO@OXXX",
"OXOOX@&X@OXOO@@&XXX@@OO&@@OOOOOO@@&&@OOO@@@OXXOOXXOOOOOO@@OOOOOO@@@XO&&OXXOXXXXXO@@@@@OOO@@XXOOX&@OO",
"XXXXX&&X@OXXXOOOOXX@@XXO@@OOOOO@OO@@@@@@XXOOOO&&XOO@@@OO@@&@@@@@OOOXO&&@&@OO@@OXXXO@@OXXXXXXO&@X=&@@",
"&&@XO&@O@&&&@O@@X@@OOXO&&XXO@@XXXXXO@@OXOX@&@XO&OXXXOOOOO@@@OO@@O@&&&@OX&@OXO&&&&@OOO@&&&XX@@XX@OOOO",
"XOXXXOOXXO@@@OOOX@OXOOO&&OX@&@@@&@XXXO@@@XX@@OO@OOO@@XO&OO@@OOO@@@@@OO@&&@XXXOOOOOOOO@@&=@@&&XXOXXXX",
"XXOOO@OX XO@@OOXX@XX@OX@OXXOOOO@&&@OXXO@&OXX@@@@O@&&OXO&O@&&@@O@XOOXXX@&&@OXXXXXXXOOOO@O@XO&&OO@XXXX",
"OO@@@@@OXO@&&@@OOOXX@@XOXXOOXXXOX@&&@OOO&@XXO@&&OO@&OXO&@&&&&&@@XO@&@OOO&&@OOOOOOOOOOOOOX X@@OO@OOOO",
"@OOXXXXX&@@@@@@@OOXX@@XO@&&@OOOOXO@&@OOO@&&@O@&&&OO@@OO@@@&&&@@O@&&&&&@@&&@@OO@@&&OXXXOOXXO@OXXXOOOO",
"@OOXXXXO&@OXXOOOO@XX@@XO@&@OO@OXOOOOXO@&O&&@O@&&&@O&&&@&@@OOOOOX&&@OXX@&@@@OOOO@&&@XXXO@OOO@@@OO@@@@",
"@O@@OXX@@OXXOOOXO@OX@OX@O@OXO&@X@@OOO@@@O@&OO@&@@@@&&@@&&@OXOOOO@@OXXXO@O@@OXXO@&@OOOO@@XOO@&&&&@@@@",
"XX@&@XX@XXXO@@OXO&OX@OX@@@OO&=&@@@@&&&OXO@OX@&&XXO@&@X@&=&OOO@@@O@&&&@@&@@&@OXOOOOOO@@@@&&&@@@@@XXXX",
"XXX@&&@OX@@XXOOX@X@@XXOXO@@@@@@@@@@@@@OX@@OOOO@@@OO&&@@&O&&OXXXX@@&=&@@&@@@OXXO&@@O@&&&@O@@OXOOXOXXX",
"@@OOOOOXXO@OOOOX@X@&OO@X&&&&@@@&XXOOOOXX@@@@@@&&XXX@&&&=O&&@@@@O@@&&&@@&&&&@@@&&@OOO@@@OO@@OO@@O@@OO",
"&&OXXXOOXO@OO@@O@O@&O@&O&&&@@@@@@&&&&&&&@@@@@&&&@OO@&@@&@@&@&&&O@@@&&@@&&&@@@@@@@OOO@@OOOOOOO@@O@@@O",
"&@XXXO&&O@@@@&@@@O@&@@&@@@OOOO@@O@@&@@@@@@@@@@&&&@@&&OO@&@OO@&@O@@@&@O@&@@@@OO@@@@@@@OOO@@@@@@@@OOOX",
"OOOOO@&&@@&&&&&&@X@&O@&@OOOOO@@&@&&&OOOO@@@@@@@&OXO@&&&&=&OO@@@@@@@&@O@&@&&&OO@&@@@@@@@@&&&&&&@@OOOX",
"@@@@@@&&&@@&&&@&@XO@O@&@OO@@&&&&&==&&@@&&&&@@@&&@OO@&@@&;&@@@@@&@@@&&@@&O@&&OOO&@@&@@@@@&@@@@OO@@@OO",
"&&&@OO@&&@@&&@O@@X@@O@&@O@@&&&&&O@&@XXXO&&&@@@@@&&@&@OOO&@&&&@@&@@&&&@@&@@OO@@OXO@@@@O@&OXXO@XO@@@@O",
"&&@@OO&=@OO&@OXO&O@@O@&@OO@&&&@O@&&&@@&&&@@OOOOO@OO@&@&&XX@&&OO&@@&=&@@&=&X@&=&XXO@@OO@&@OO&&&&=@@OO",
"X@&@O@&&@OOOOOXX@OX@@OXX&@OO&&&@XO@@OOO@&&@@OOOO@OO@&&&&@&@@&&@X@&==&@@@@&&&@@@&&&@OOOO@X@OX@&@&&&@@",
"XOOXXO@@OOO@&&&@OXX@&@O@O@@@@@@&O@@@@OO@&&&&&&&&OOO@&&@@@=;&OO&&@&&&&@@@&&@OO@&=&&&@@@&&O&&O&&@&&&&&",
"&&@XO@&OOOO@&&&&@XX@&@@@O@&&OO@&O@@@@@@@OOO@@@&&OO@@@@@@O&&@XX@&O@&&&@@@&@OXO@&&&&&@@&&&@=&O@@OO&@@@",
"&&&OO@&@OOOOOOOO&@@@@OO@O@@@OO@&@@@&@@@@OOOO@@@&@&&&@@@&@@OXO&@XO@&&&&@@@OO@&&@O@@@@@@@@O&@X@@XXOOOO",
"O&&OXXO@OOOOOOOO&@@@@OO&@OOO@&@O@@@@@@@O&&&&&&&&@&&&@O@&@@@@&&&X@@@&&&&&@@O@&&OX@@OOOO@@O&@X@@XOOO@@",
"X&&@XX@&XOOOO@@&@OO@@O@&@OXO@&@O@@@@@@OO&&&&&@@@@@@@OO@@X@=&OO@&@@@&&&&@&&OOOO@@@@@@@@@@O&@O@&O@OOOO",
"O&&&@&&&OO@OOO@&@OO@OO@=OOOO@@@@&@@@@@OX@@@OOOOO@@OO@@@@ @&@XX@&@@@@&&@@&&@OOO@&&&@@@@@@O&@O@@OOXXOO",
"XOOO@&@O@@@OXXO@&&@@OXO&XO@@OOO&&@O@@@OX@@@@@@@@&@OO&&&@&&OO@&&@@@O@@&@OXO&&&@@@@@@@@OOOO&@XOOXXOO@@",
"XO&&&@O@@OO@&&&@XXO&&&&=OOO@@@@&X=;@XX@@O&&XX&&O&OO&=&&&@&@@=&@&@@@@@@@@@&&&&@OOXXXO&&@OO@&&@@@&OO@@",
"XO@&@@OO@@OO@@OX&@&&@XXO@@@@OXXXX&;&O@@O@@@OO@@@&@O&&&OOO@OO&&XO&&&&&@@@O@@@OOOOOO@@&&@@XOOOOXOOOO@&",
"@OOO@@OX@OOOOOOX&@&&&@@&@@@@@XX X&&&@&&O&@O@@O@&&@O@&@OO@&@O&&O@&&&@@@@&@&&@@@@&O@&&@@@@@&&&@OOOO@&&",
"&@XXOOOXXXXXO@@@OO@&&@@&OO&&&&@OO@@O@&&O&OO&&OO&@OO@&&&@O&@O&&@&&&@@@@&&&&&@@@&=X@&@OXOO&&=&&@@@O@&&",
"&@XXOOOXOOOOO@&&@O@@@XXOXO&&&&&&@OXXO&&&&OO&&OO&@@@@&&&&XOXX@@O&&&&@@@@@@@@OOO&&O@&@OXO@@&&&@OXOO@@&",
"&@OOOOOX&&@@OOO@@O@&&@@&OO@&&&@O@@XXX@&&&@@@@@@&&&&@@&&@X@OO&@@&&&&&@@XX&&@@@@&&&&&&&@@&O@&@OOOO@@@O",
"@@@@OOOO&&@OXXXOOO@&&&&;O@@@@@OO@@OOO@&=@&&@@&&@&&&@@&&@@&&@&&@=&&&&@@@X&&&&&&&=&&&&&&&&@&&&&@@&&@OX",
"O@&&@OO@OOOXXXX@@O@&@XXOOO@@@@@@@@&&@@&=@&&OO&&@O&&OO&&&@&&O@OX&@@&;;;&&@&&&@@@&&&@@&&&@O@&&&&&&&&OX",
"OOOXXXO@OOOOOO&=XXOO@@@&X@&@@&&O&&@@@@&&@@@@@@@@XOO@@&&&&@@@@O@&&OO&=&O@&&&&&@OO&&&@OOO@O@@OO@@O@@@O",
"@@OOXXO@XXOOOO@@OOOO@@@@&&&@@&&@XO@@@@OXXOO@@&&&==&&&@@@&&@@@@&&=&&&&@OO&&&&&&&&O@@OXO@&@&&@@&@OXOOO",
"@@OO@@OOXX@&@OOXOOOOOOOO&&OOOXO&O@@&&@@O&&@@@@OO&&&&&&&&&&&O@&&@&&&&&&&&&@O@&&&&OOOOOO@&&&&@@&@OOO@@",
"&@OO@@OXXO@&&@OOXXOOOOOO&@O@@X@=&&@@@@&&&&&@@OOO&&&&&&&&@&&X@;=X@&&@@==&=&@O@&&@&&&@@OO@@&&OO@OX@@@@",
"@OXO@@OX@@@@@@@OXXOO@@@@&@&=&@&;&&@OO@&&OOO@&&&&&&&&&&@@O&@X@;&X=;=@O@@X=&@O@@@O;=&&&@OOO@@OOOOX@@OO",
"@OOXOO@@@OXXXOOOO@@@&&&&XO&&&@&&@&&&&&&@@@@&&&&&&&&&&&&&O@@O@=&O&=&@O@&&&&@@@@@&&&&&&&@@@&&@@&@O@@@@",
"@@OXXO&&@OXXOO@O@@@&&&&&XO&&@@@@&&&==&&&==&&&@@@@@&&&===O@@&&&&@&@@&&&=:@&&&@@&&&&@@&&&@@&&@@&&&@&&&",
"@@@OXO&;@OOO@&@@@@@@@@@@O=;&@&&&&&@OO@&&&&&&&&&&=&&&&@@@OO&&&&&&=&&&&@&:@&;=&@&&&&&&&&&@@&&@@&&&@@@@",
"&@@O@@&&@@&@@OO@O&&@@&&@=&&&@@@&O@&@&&&&@@@@@&&&&&=&&@@@&&&&&&@@@@@@@@&;@&=&@&&&&@@@@@&&X@&&@@OO@&&=",
"@@OOO@@&&&@@@@@@@&&@@@@O&@@@O@@@&==&&&&@@&&&&&@@&&=&&&&&@&&&&&@@&&&&&&&;@&&&@&&&&&&&@@@&O&&&&@@@&&&&",
"O@@@OO&&&&@O@&&@@&&@@&@O&&&&&===&==&&&&@@&&&&&@O&&==&&&=@@&&&&@@&;;;&&&&@&&&@&&&=&&&&&&&@&&&&@@&&&&&",
"@&&&@@&;=&OO@&&O@&&@@&&&@@@@@@@@@&&@@&&&@&&&&&@@&&&&&&&&@&&&&&@@&&;;&&&&@&&&&&&@&&&&&&&&&@@@@O@&@&&&",
"&&&&@&&=&@XO@&@O@&&&&&=&@@@&@@@OO@@O@&&&&@@@@&&&&&&&&&&&&&&&&&@@@&;;;&&&@@@&&&@@@&&&&&&&&@O@&@@&&&&&",
"&&@@@@&&&@OO@@@O@&&@&&&&&==;==&&&&&@@&&&&@@@@&=;@&&&&@@@&&&&&&@@&&;;;&&&&@@&&&@@O@@&&&&&&@@&&&@&&&@@",
"&&OO@&&@@@@&&@@O@&&@@&&@OO@&&&@O&&&@@&&&&&@@&&&=O@&&&@@&@@&&&&&&&&;;&&&&&@@&=&@@@@@&&&&&&@@&=&@&@@@@",
";&OO&&&@O@&&&@@O@&&OOOOXO@&&&&&&@&@OO@&&&&&&&&&&O@&&&&&&X@@&&&&&&&&&@@@@&@@&=&@@&&&&&&&@&OO&=@O@&&&@",
"@@@@@OXX&&&@OXO@O@&&OO@&OO&&==&&&&&@&&==&@&&@X@=@&&@&=&&&&&O@==@&&&@OO&=@;;==&@=&&&&&@@@X@&=&&&&@@@@",
"&&&@@@OOO@@@@@&&OOO@&&&&@@@@@&&&&&&&&&&&&&&&&@@=@&@@&&&&=&&@&==&&&&@O@&&@&&&&&@&&&&&&&&&O@&&&@@@&&&&",
"&@@@@@@@OOO@&&&&@OXO&&&@&&@OOO@&&&&&&@@@@@@&&@@&@@@@@&&@=&@&&&&&&&@@&&&&&&@O&&@&&&&&&&&&&&&&@OOO&&&&",
"@@OOO@@&@OO@@@OX@OXOOOXX=&&@O@&&O@@&&&&&XXO@&&@@@@@@&&&@=@O&&&@&&&&&==&&&&@@&&&=&&&&@@@@&&&&&@@@&&&&",
"@@@@@@&&&&@@@@OXO@@@OXXO@&&&@@&&OO@@@&@@XO@&&=&&@&&@&&&&=@@&=&@&&&&&==&&@&&@&@&;&&@@@@@&&&&&&&@@&&&&",
"&&&&&&&&&&@@&&&&O@&&@O@&X@&&@@@@&&@@@@OOXO@@&&=&@&&@&=&&&&&&=&&&&&&&&&&&O&&@@OO=@@@@&&&=@O@@&&@@&&&&",
"@@@&&&&&&&@@O@&&@@@@@@&&X@&&@OO@&&@@OO@@X@&OO@&&@&&@&&&&@&&&&&&&&&&&&@&&O&&&&@O&&@@@@&&&OOO@&&@O@&&&",
"XOO@@@@O@@@OXX@&&@OO@@OX@&&&@O@&@@OOO@&&@==&O@&&@@@@&&&@X&&@O&&O&&=&&@&=&=&&=&@&&&@OOOOO@@@&&&@O@@@@",
"@&&&@OXX@&O@@X@X@@@@@@@@&&&&&@@O@@OXO@@@&@&&=&@@==&;:&=&:=&&&@&&@@&&&&;&&&&@OOOO=&&&@XXO&&@O&&O&@OOO",
"&&&&@@OO@&O@@X&O@@@@@@@@@@@&&@@@@@OXO@@O&@@&&&@@&&O&=@&@:&&&&@&&@&&&&&&&@@@@@&&&@@@&&@@&&&@O&&O&&&@@",
"&&&@@@@@O&X@@O&@@@@@@@@@XXO@@&&&&@OOOOOO&@@&&&@@&&X&&O&@;&@&&&&&&&&&&&&&&@@@&&&=OO@&&@&=&&@O&&O&&&&&",
"&&@O@@@@X@X@@O&@@@@@@@@@XXOO@@&&&@OOOOXO&@@&&@OO&=O&&@=&=&@&&&&&&&&&&&&&;&&&&&&&&@&&&O@&&&@O&&O@@@@@"
};
