/* XPM */
static char *_dd3d27eae574559b1e9d7fb36a4d3cbVqWy8XNfmv76ixcN[] = {
/* columns rows colors chars-per-pixel */
"100 100 4 1 ",
"  c #5B8764",
". c #E9E8E2",
"X c #8AAA90",
"o c #87A88E",
/* pixels */
"....................................................................................................",
".XoXXXXXXXXXXXXXXXXXXXXXXXXXXXXXXXXXXXXXXXXXXXXXXXXXXXXXXXXXXXXXXXXXXXXXXXXXXXXXXXXXXXXXXXXXXXXXXXX.",
".X                                                                                                X.",
".X                                                                                                X.",
".X                                                                                                o.",
".X                                                                                                X.",
".X                                                                                                o.",
".X                                                                                                X.",
".X                                                                                                o.",
".X                                                                                                X.",
".X                                                                                                o.",
".X                                                                                                X.",
".X                                                                                                o.",
".X                                                                                                X.",
".X                                                                                                o.",
".X                                                                                                X.",
".X                                                                                                o.",
".X                                                                                                X.",
".X                                                                                                o.",
".X                                                                                                X.",
".X                                                                                                o.",
".X                                                                                                X.",
".X                                                                                                o.",
".X                                                                                                X.",
".X                                                                                                o.",
".X                                                                                                X.",
".X                                                                                                o.",
".X                                                                                                X.",
".X                                                                                                o.",
".X                                                                                                X.",
".X                                                                                                o.",
".X                                                                                                X.",
".X                                                                                                o.",
".X                                                                                                X.",
".X                                                                                                o.",
".X                                                                                                X.",
".X                                                                                                o.",
".X                                                                                                X.",
".X                                                                                                o.",
".X                                                                                                X.",
".X                                                                                                o.",
".X                                                                                                X.",
".X                                                                                                o.",
".X                                                                                                X.",
".X                                                                                                o.",
".X                                                                                                X.",
".X                                                                                                o.",
".X                                                                                                X.",
".X                                                                                                o.",
".X                                                                                                X.",
".X                                                                                                o.",
".X                                                                                                X.",
".X                                                                                                o.",
".X                                                                                                X.",
".X                                                                                                o.",
".X                                                                                                X.",
".X                                                                                                o.",
".X                                                                                                X.",
".X                                                                                                o.",
".X                                                                                                X.",
".X                                                                                                o.",
".X                                                                                                X.",
".X                                                                                                o.",
".X                                                                                                X.",
".X                                                                                                o.",
".X                                                                                                X.",
".X                                                                                                o.",
".X                                                                                                X.",
".X                                                                                                o.",
".X                                                                                                X.",
".X                                                                                                o.",
".X                                                                                                X.",
".X                                                                                                o.",
".X                                                                                                X.",
".X                                                                                                o.",
".X                                                                                                X.",
".X                                                                                                o.",
".X                                                                                                X.",
".X                                                                                                o.",
".X                                                                                                X.",
".X                                                                                                o.",
".X                                                                                                X.",
".X                                                                                                o.",
".X                                                                                                X.",
".X                                                                                                o.",
".X                                                                                                X.",
".X                                                                                                o.",
".X                                                                                                X.",
".X                                                                                                o.",
".X                                                                                                X.",
".X                                                                                                o.",
".X                                                                                                X.",
".X                                                                                                o.",
".X                                                                                                X.",
".X                                                                                                o.",
".X                                                                                                X.",
".X                                                                                                o.",
".o                                                                                                o.",
".XoXooooooooooooooooooooooooooooooooooooooooooooooooooooooooooooooooooooooooooooooooooooooooooooooX.",
"...................................................................................................."
};
